<?xml version="1.0" encoding="UTF-8" standalone="no"?>
<!-- Generator: Adobe Illustrator 14.0.0, SVG Export Plug-In . SVG Version: 6.00 Build 43363)  -->

<svg
   xmlns:dc="http://purl.org/dc/elements/1.1/"
   xmlns:cc="http://creativecommons.org/ns#"
   xmlns:rdf="http://www.w3.org/1999/02/22-rdf-syntax-ns#"
   xmlns:svg="http://www.w3.org/2000/svg"
   xmlns="http://www.w3.org/2000/svg"
   xmlns:sodipodi="http://sodipodi.sourceforge.net/DTD/sodipodi-0.dtd"
   xmlns:inkscape="http://www.inkscape.org/namespaces/inkscape"
   version="1.1"
   id="Layer_1"
   x="0px"
   y="0px"
   width="82.353996"
   height="69.150002"
   viewBox="0 0 82.353995 69.150001"
   enable-background="new 0 0 255.882 255.882"
   xml:space="preserve"
   sodipodi:docname="key_base.svg"
   inkscape:version="0.92.4 (5da689c313, 2019-01-14)"><metadata
   id="metadata93"><rdf:RDF><cc:Work
       rdf:about=""><dc:format>image/svg+xml</dc:format><dc:type
         rdf:resource="http://purl.org/dc/dcmitype/StillImage" /><dc:title></dc:title></cc:Work></rdf:RDF></metadata><defs
   id="defs91" /><sodipodi:namedview
   pagecolor="#ffffff"
   bordercolor="#666666"
   borderopacity="1"
   objecttolerance="10"
   gridtolerance="10"
   guidetolerance="10"
   inkscape:pageopacity="0"
   inkscape:pageshadow="2"
   inkscape:window-width="2560"
   inkscape:window-height="1017"
   id="namedview89"
   showgrid="false"
   showguides="true"
   inkscape:guide-bbox="true"
   fit-margin-top="0"
   fit-margin-left="0"
   fit-margin-right="0"
   fit-margin-bottom="0"
   inkscape:zoom="3.6892004"
   inkscape:cx="28.256715"
   inkscape:cy="-12.051067"
   inkscape:window-x="1912"
   inkscape:window-y="-8"
   inkscape:window-maximized="1"
   inkscape:current-layer="Layer_1"><sodipodi:guide
     position="56.666121,-13.377631"
     orientation="0,1"
     id="guide4619"
     inkscape:locked="false" /></sodipodi:namedview>









<g
   id="g76"
   transform="translate(-87.038,-18.198)">
	<g
   id="g70"
   style="fill:#1d678d;fill-opacity:1"
   inkscape:export-xdpi="1193.9261"
   inkscape:export-ydpi="1193.9261">
		<path
   d="m 146.285,21.151 h -36.139 c -6.429,0 -11.814,2.085 -16.332,6.776 -4.517,4.518 -6.776,9.904 -6.776,16.159 V 64.24 c 0,6.428 2.259,11.814 6.776,16.332 4.518,4.518 9.903,6.776 16.332,6.776 h 36.139 c 6.429,0 11.988,-2.258 16.332,-6.776 4.518,-4.518 6.775,-9.904 6.775,-16.332 V 44.085 c 0,-6.255 -2.258,-11.641 -6.775,-16.159 -4.344,-4.69 -9.904,-6.775 -16.332,-6.775 z"
   id="path68"
   style="fill:#1d678d;fill-opacity:1"
   inkscape:connector-curvature="0" />
	</g>
	<g
   id="g74"
   inkscape:export-xdpi="1193.9261"
   inkscape:export-ydpi="1193.9261">
		<path
   d="m 143.505,18.198 h -29.19 c -5.038,0 -9.556,1.91 -13.205,5.559 -3.648,3.648 -5.385,7.992 -5.385,13.031 v 16.159 c 0,5.212 1.737,9.729 5.385,13.204 3.649,3.649 8.167,5.386 13.205,5.386 h 29.19 c 5.038,0 9.382,-1.737 13.031,-5.386 3.647,-3.475 5.385,-7.991 5.385,-13.204 V 36.788 c 0,-5.039 -1.737,-9.382 -5.385,-13.031 -3.649,-3.649 -7.993,-5.559 -13.031,-5.559 z"
   id="path72"
   style="fill:#2789bc;fill-opacity:1"
   inkscape:connector-curvature="0" />
	</g>
</g>
<g
   id="g86"
   transform="translate(-87.038,-18.198)">
	
	
	
	
</g>
</svg>